<?xml version="1.0" encoding="UTF-8"?>
<svg width="107px" height="28px" viewBox="0 0 107 28" version="1.1" xmlns="http://www.w3.org/2000/svg" xmlns:xlink="http://www.w3.org/1999/xlink">
    <!-- Generator: Sketch 46.2 (44496) - http://www.bohemiancoding.com/sketch -->
    <title>Empathy</title>
    <desc>Created with Sketch.</desc>
    <defs></defs>
    <g id="Page-1" stroke="none" stroke-width="1" fill="none" fill-rule="evenodd">
        <path d="M0.750574312,1.884 L12.7655743,1.884 L12.7655743,3.99 L3.01857431,3.99 L3.01857431,9.984 L12.1175743,9.984 L12.1175743,12.09 L3.01857431,12.09 L3.01857431,18.894 L13.2515743,18.894 L13.2515743,21 L0.750574312,21 L0.750574312,1.884 Z M16.6934102,11.361 C16.6934102,10.7849971 16.6754104,10.2450025 16.6394102,9.741 C16.60341,9.23699748 16.5854102,8.77800207 16.5854102,8.364 L18.5834102,8.364 C18.5834102,8.70600171 18.5924101,9.04799829 18.6104102,9.39 C18.6284103,9.73200171 18.6374102,10.0829982 18.6374102,10.443 L18.6914102,10.443 C18.8354109,10.1369985 19.0379089,9.84000144 19.2989102,9.552 C19.5599115,9.26399856 19.8704084,9.00750112 20.2304102,8.7825 C20.590412,8.55749887 20.995408,8.37750067 21.4454102,8.2425 C21.8954125,8.10749933 22.3814076,8.04 22.9034102,8.04 C23.5874136,8.04 24.1589079,8.12549915 24.6179102,8.2965 C25.0769125,8.46750086 25.4594087,8.67449878 25.7654102,8.9175 C26.0714118,9.16050121 26.3099094,9.42149861 26.4809102,9.7005 C26.6519111,9.97950139 26.7914097,10.2269989 26.8994102,10.443 C27.3674126,9.68699622 27.9074072,9.09750211 28.5194102,8.6745 C29.1314133,8.25149789 29.9234054,8.04 30.8954102,8.04 C31.7954147,8.04 32.5514072,8.16149879 33.1634102,8.4045 C33.7754133,8.64750122 34.2704083,8.9984977 34.6484102,9.4575 C35.0264121,9.91650229 35.2964094,10.4744967 35.4584102,11.1315 C35.620411,11.7885033 35.7014102,12.521996 35.7014102,13.332 L35.7014102,21 L33.5954102,21 L33.5954102,13.44 C33.5954102,13.0079978 33.5504107,12.5850021 33.4604102,12.171 C33.3704098,11.7569979 33.2084114,11.3880016 32.9744102,11.064 C32.7404091,10.7399984 32.4254122,10.479001 32.0294102,10.281 C31.6334082,10.082999 31.1294133,9.984 30.5174102,9.984 C30.067408,9.984 29.6444122,10.0739991 29.2484102,10.254 C28.8524082,10.4340009 28.5059117,10.6859984 28.2089102,11.01 C27.9119087,11.3340016 27.6779111,11.7254977 27.5069102,12.1845 C27.3359094,12.6435023 27.2504102,13.1519972 27.2504102,13.71 L27.2504102,21 L25.1444102,21 L25.1444102,13.845 C25.1444102,12.440993 24.9554121,11.4465029 24.5774102,10.8615 C24.1994083,10.2764971 23.5784145,9.984 22.7144102,9.984 C22.0304068,9.984 21.4409127,10.1009988 20.9459102,10.335 C20.4509077,10.5690012 20.0459118,10.9019978 19.7309102,11.334 C19.4159086,11.7660022 19.181911,12.278997 19.0289102,12.873 C18.8759095,13.467003 18.7994102,14.1239964 18.7994102,14.844 L18.7994102,21 L16.6934102,21 L16.6934102,11.361 Z M39.8992461,8.364 L42.0052461,8.364 L42.0052461,10.2 L42.0592461,10.2 C42.635249,9.51599658 43.3057423,8.98500189 44.0707461,8.607 C44.83575,8.22899811 45.6772415,8.04 46.5952461,8.04 C47.5852511,8.04 48.489742,8.20649833 49.3087461,8.5395 C50.1277502,8.87250166 50.8252433,9.33599703 51.4012461,9.93 C51.977249,10.524003 52.4272445,11.2259959 52.7512461,12.036 C53.0752478,12.8460041 53.2372461,13.7279952 53.2372461,14.682 C53.2372461,15.6360048 53.0752478,16.5179959 52.7512461,17.328 C52.4272445,18.138004 51.981749,18.839997 51.4147461,19.434 C50.8477433,20.028003 50.17725,20.4914983 49.4032461,20.8245 C48.6292423,21.1575017 47.8012505,21.324 46.9192461,21.324 C45.7852405,21.324 44.7907504,21.0765025 43.9357461,20.5815 C43.0807419,20.0864975 42.4552481,19.4790036 42.0592461,18.759 L42.0052461,18.759 L42.0052461,27.156 L39.8992461,27.156 L39.8992461,8.364 Z M42.0052461,14.682 C42.0052461,15.3480033 42.1087451,15.9644972 42.3157461,16.5315 C42.5227472,17.0985028 42.8242442,17.5934979 43.2202461,18.0165 C43.6162481,18.4395021 44.0887434,18.7724988 44.6377461,19.0155 C45.1867489,19.2585012 45.8032427,19.38 46.4872461,19.38 C47.1712496,19.38 47.7877434,19.2585012 48.3367461,19.0155 C48.8857489,18.7724988 49.3582442,18.4395021 49.7542461,18.0165 C50.1502481,17.5934979 50.4517451,17.0985028 50.6587461,16.5315 C50.8657472,15.9644972 50.9692461,15.3480033 50.9692461,14.682 C50.9692461,14.0159967 50.8657472,13.3995028 50.6587461,12.8325 C50.4517451,12.2654972 50.1502481,11.7705021 49.7542461,11.3475 C49.3582442,10.9244979 48.8857489,10.5915012 48.3367461,10.3485 C47.7877434,10.1054988 47.1712496,9.984 46.4872461,9.984 C45.8032427,9.984 45.1867489,10.1054988 44.6377461,10.3485 C44.0887434,10.5915012 43.6162481,10.9244979 43.2202461,11.3475 C42.8242442,11.7705021 42.5227472,12.2654972 42.3157461,12.8325 C42.1087451,13.3995028 42.0052461,14.0159967 42.0052461,14.682 Z M56.652082,9.984 C57.3000853,9.31799667 58.0695776,8.82750158 58.960582,8.5125 C59.8515865,8.19749843 60.7560775,8.04 61.674082,8.04 C63.5460914,8.04 64.8960779,8.48099559 65.724082,9.363 C66.5520862,10.2450044 66.966082,11.585991 66.966082,13.386 L66.966082,18.813 C66.966082,19.1730018 66.9840819,19.5464981 67.020082,19.9335 C67.0560822,20.3205019 67.1010818,20.6759984 67.155082,21 L65.130082,21 C65.0580817,20.7119986 65.0175821,20.3925018 65.008582,20.0415 C64.999582,19.6904982 64.995082,19.3800014 64.995082,19.11 L64.941082,19.11 C64.52708,19.7580032 63.9735855,20.2889979 63.280582,20.703 C62.5875786,21.1170021 61.7550869,21.324 60.783082,21.324 C60.1350788,21.324 59.5275849,21.2430008 58.960582,21.081 C58.3935792,20.9189992 57.8985842,20.6805016 57.475582,20.3655 C57.0525799,20.0504984 56.7150833,19.6590023 56.463082,19.191 C56.2110808,18.7229977 56.085082,18.1830031 56.085082,17.571 C56.085082,16.5269948 56.3550793,15.708003 56.895082,15.114 C57.4350847,14.519997 58.105578,14.0790014 58.906582,13.791 C59.707586,13.5029986 60.5715774,13.3230004 61.498582,13.251 C62.4255867,13.1789996 63.2760782,13.143 64.050082,13.143 L64.860082,13.143 L64.860082,12.765 C64.860082,11.8469954 64.5855848,11.1540023 64.036582,10.686 C63.4875793,10.2179977 62.718087,9.984 61.728082,9.984 C61.0440786,9.984 60.3735853,10.0964989 59.716582,10.3215 C59.0595788,10.5465011 58.4790846,10.8929977 57.975082,11.361 L56.652082,9.984 Z M62.754082,14.925 C61.4040753,14.925 60.333086,15.1139981 59.541082,15.492 C58.7490781,15.8700019 58.353082,16.4909957 58.353082,17.355 C58.353082,18.147004 58.6185794,18.7094983 59.149582,19.0425 C59.6805847,19.3755017 60.3420781,19.542 61.134082,19.542 C61.7460851,19.542 62.2815797,19.438501 62.740582,19.2315 C63.1995843,19.024499 63.5820805,18.7500017 63.888082,18.408 C64.1940836,18.0659983 64.4280812,17.6655023 64.590082,17.2065 C64.7520829,16.7474977 64.842082,16.2570026 64.860082,15.735 L64.860082,14.925 L62.754082,14.925 Z M78.048918,10.146 L74.322918,10.146 L74.322918,16.464 C74.322918,16.8780021 74.3319179,17.2604982 74.349918,17.6115 C74.367918,17.9625018 74.4399173,18.2684987 74.565918,18.5295 C74.6919186,18.7905013 74.8809167,18.9974992 75.132918,19.1505 C75.3849192,19.3035008 75.7449156,19.38 76.212918,19.38 C76.5189195,19.38 76.8339163,19.3440004 77.157918,19.272 C77.4819196,19.1999996 77.7879165,19.0920007 78.075918,18.948 L78.156918,20.865 C77.7969162,21.0270008 77.3964202,21.1439996 76.955418,21.216 C76.5144158,21.2880004 76.0959199,21.324 75.699918,21.324 C74.9439142,21.324 74.3409202,21.225001 73.890918,21.027 C73.4409157,20.828999 73.0899192,20.5500018 72.837918,20.19 C72.5859167,19.8299982 72.4194184,19.3845027 72.338418,18.8535 C72.2574176,18.3224973 72.216918,17.7330032 72.216918,17.085 L72.216918,10.146 L69.462918,10.146 L69.462918,8.364 L72.216918,8.364 L72.216918,4.773 L74.322918,4.773 L74.322918,8.364 L78.048918,8.364 L78.048918,10.146 Z M80.9777539,0.588 L83.0837539,0.588 L83.0837539,10.119 L83.1377539,10.119 C83.2817546,9.86699874 83.4797526,9.61950122 83.7317539,9.3765 C83.9837551,9.13349879 84.2852521,8.91300099 84.6362539,8.715 C84.9872556,8.51699901 85.3787517,8.35500063 85.8107539,8.229 C86.242756,8.10299937 86.7017514,8.04 87.1877539,8.04 C88.015758,8.04 88.7312509,8.16599874 89.3342539,8.418 C89.9372569,8.67000126 90.4367519,9.02099775 90.8327539,9.471 C91.2287558,9.92100225 91.5212529,10.4654968 91.7102539,11.1045 C91.8992548,11.7435032 91.9937539,12.4409962 91.9937539,13.197 L91.9937539,21 L89.8877539,21 L89.8877539,13.413 C89.8877539,12.3509947 89.6537562,11.5140031 89.1857539,10.902 C88.7177515,10.2899969 87.9887588,9.984 86.9987539,9.984 C86.3147504,9.984 85.7252563,10.1009988 85.2302539,10.335 C84.7352514,10.5690012 84.3302554,10.9019978 84.0152539,11.334 C83.7002523,11.7660022 83.4662546,12.278997 83.3132539,12.873 C83.1602531,13.467003 83.0837539,14.1239964 83.0837539,14.844 L83.0837539,21 L80.9777539,21 L80.9777539,0.588 Z M100.94359,23.889 C100.727589,24.4290027 100.507091,24.9194978 100.28209,25.3605 C100.057089,25.8015022 99.7870914,26.1794984 99.4720898,26.4945 C99.1570882,26.8095016 98.779092,27.0524991 98.3380898,27.2235 C97.8970876,27.3945009 97.3615929,27.48 96.7315898,27.48 C96.4255882,27.48 96.1060914,27.4620002 95.7730898,27.426 C95.4400881,27.3899998 95.1295912,27.3000007 94.8415898,27.156 L95.1115898,25.32 C95.3275909,25.4100004 95.5525886,25.4684999 95.7865898,25.4955 C96.0205909,25.5225001 96.2905882,25.536 96.5965898,25.536 C97.2805932,25.536 97.7845882,25.3470019 98.1085898,24.969 C98.4325914,24.5909981 98.7115886,24.0870031 98.9455898,23.457 L99.8095898,21.081 L94.5715898,8.364 L97.0285898,8.364 L100.94359,18.273 L100.99759,18.273 L104.75059,8.364 L107.04559,8.364 L100.94359,23.889 Z" id="Empathy" fill="#221648"></path>
    </g>
</svg>